<mxfile host="app.diagrams.net" modified="2024-03-25T08:35:35.696Z" agent="Mozilla/5.0 (Windows NT 10.0; Win64; x64) AppleWebKit/537.36 (KHTML, like Gecko) Chrome/121.0.0.0 Safari/537.36" etag="1yeQcNmbVG8_wLwly1-L" version="24.0.7" type="device">
  <diagram name="Trang-1" id="NEZhB0lVsFbpcUOGNPL9">
    <mxGraphModel dx="1829" dy="1031" grid="0" gridSize="10" guides="1" tooltips="1" connect="1" arrows="1" fold="1" page="0" pageScale="1" pageWidth="827" pageHeight="1169" math="0" shadow="0">
      <root>
        <mxCell id="0" />
        <mxCell id="1" parent="0" />
        <mxCell id="_Ik8u61hdlwId_52YE1R-29" value="&lt;p style=&quot;margin:0px;margin-top:4px;text-align:center;&quot;&gt;&lt;br&gt;&lt;b&gt;nhansuhuyen&lt;/b&gt;&lt;/p&gt;&lt;hr size=&quot;1&quot; style=&quot;border-style:solid;&quot;&gt;&lt;p style=&quot;margin:0px;margin-left:4px;&quot;&gt;&lt;b&gt;&lt;u&gt;+ ID: int[11]&lt;/u&gt;&lt;/b&gt;&lt;br&gt;+ Hoten: varchar[100]&lt;/p&gt;&lt;p style=&quot;margin:0px;margin-left:4px;&quot;&gt;+ Ngaysinh: date&lt;/p&gt;&lt;p style=&quot;margin:0px;margin-left:4px;&quot;&gt;+ Gioitinh: varchar[10]&lt;/p&gt;&lt;p style=&quot;margin:0px;margin-left:4px;&quot;&gt;+ Quoctich: varchar[30]&lt;/p&gt;&lt;p style=&quot;margin:0px;margin-left:4px;&quot;&gt;+ Dantoc: varchar[20]&lt;/p&gt;&lt;p style=&quot;margin:0px;margin-left:4px;&quot;&gt;+ Tongiao: varchar[20]&lt;/p&gt;&lt;p style=&quot;margin:0px;margin-left:4px;&quot;&gt;+ Quequan: varchar[100]&lt;/p&gt;&lt;p style=&quot;margin:0px;margin-left:4px;&quot;&gt;+ Giaoducphothong: varchar[20]&lt;/p&gt;&lt;p style=&quot;margin:0px;margin-left:4px;&quot;&gt;+ Chuyenmonnghiepvu: varchar[50]&lt;/p&gt;&lt;p style=&quot;margin:0px;margin-left:4px;&quot;&gt;+ Tuoi: int[11]&lt;/p&gt;&lt;p style=&quot;margin:0px;margin-left:4px;&quot;&gt;+ Lyluanchinhtri: varchar[20]&lt;/p&gt;&lt;p style=&quot;margin:0px;margin-left:4px;&quot;&gt;+ Ngoaingu:&amp;nbsp;&lt;span style=&quot;background-color: initial;&quot;&gt;varchar[20]&lt;/span&gt;&lt;/p&gt;&lt;p style=&quot;margin:0px;margin-left:4px;&quot;&gt;+ Nghenghiepchucvu:&amp;nbsp;&lt;span style=&quot;background-color: initial;&quot;&gt;varchar[50]&lt;/span&gt;&lt;/p&gt;&lt;p style=&quot;margin:0px;margin-left:4px;&quot;&gt;+ Noicongtac:&amp;nbsp;&lt;span style=&quot;background-color: initial;&quot;&gt;varchar[50]&lt;/span&gt;&lt;/p&gt;&lt;p style=&quot;margin:0px;margin-left:4px;&quot;&gt;+ Ngayvaodang: date&lt;/p&gt;&lt;p style=&quot;margin:0px;margin-left:4px;&quot;&gt;+ Tinhtrang:&amp;nbsp;&lt;span style=&quot;background-color: initial;&quot;&gt;varchar[50]&lt;/span&gt;&lt;/p&gt;&lt;p style=&quot;margin:0px;margin-left:4px;&quot;&gt;+ Ghichu:&amp;nbsp;&lt;span style=&quot;background-color: initial;&quot;&gt;varchar[255]&lt;/span&gt;&lt;/p&gt;&lt;p style=&quot;margin:0px;margin-left:4px;&quot;&gt;&lt;br&gt;&lt;/p&gt;&lt;p style=&quot;margin:0px;margin-left:4px;&quot;&gt;&lt;br&gt;&lt;/p&gt;&lt;hr size=&quot;1&quot; style=&quot;border-style:solid;&quot;&gt;&lt;p style=&quot;margin:0px;margin-left:4px;&quot;&gt;+ void: ThemCB&lt;/p&gt;&lt;p style=&quot;margin:0px;margin-left:4px;&quot;&gt;+ void: SuaCB&lt;br&gt;+ void: XoaCB&lt;/p&gt;&lt;p style=&quot;margin: 0px 0px 0px 4px;&quot;&gt;+ void: setMaCB&lt;/p&gt;&lt;p style=&quot;margin: 0px 0px 0px 4px;&quot;&gt;+ varchar get&lt;span style=&quot;background-color: initial;&quot;&gt;MaCB&lt;/span&gt;&lt;/p&gt;&lt;p style=&quot;margin:0px;margin-left:4px;&quot;&gt;+ void: setHoten&lt;/p&gt;&lt;p style=&quot;margin:0px;margin-left:4px;&quot;&gt;+ varchar getHoten&lt;/p&gt;" style="verticalAlign=top;align=left;overflow=fill;html=1;whiteSpace=wrap;" parent="1" vertex="1">
          <mxGeometry x="160" y="70" width="230" height="460" as="geometry" />
        </mxCell>
        <mxCell id="_Ik8u61hdlwId_52YE1R-30" value="&lt;p style=&quot;margin:0px;margin-top:4px;text-align:center;&quot;&gt;&lt;br&gt;&lt;b&gt;nhansuxathitran&lt;/b&gt;&lt;/p&gt;&lt;hr size=&quot;1&quot; style=&quot;border-style:solid;&quot;&gt;&lt;p style=&quot;margin:0px;margin-left:4px;&quot;&gt;&lt;u&gt;&lt;b&gt;+ ID: int[11]&lt;/b&gt;&lt;/u&gt;&lt;br&gt;+ Hoten: varchar[100]&lt;/p&gt;&lt;p style=&quot;margin:0px;margin-left:4px;&quot;&gt;+ Ngaysinh: date&lt;/p&gt;&lt;p style=&quot;margin:0px;margin-left:4px;&quot;&gt;+ Gioitinh: varchar[10]&lt;/p&gt;&lt;p style=&quot;margin:0px;margin-left:4px;&quot;&gt;+ Quoctich: varchar[30]&lt;/p&gt;&lt;p style=&quot;margin:0px;margin-left:4px;&quot;&gt;+ Dantoc: varchar[20]&lt;/p&gt;&lt;p style=&quot;margin:0px;margin-left:4px;&quot;&gt;+ Tongiao: varchar[20]&lt;/p&gt;&lt;p style=&quot;margin:0px;margin-left:4px;&quot;&gt;+ Quequan: varchar[100]&lt;/p&gt;&lt;p style=&quot;margin:0px;margin-left:4px;&quot;&gt;+ Giaoducphothong: varchar[20]&lt;/p&gt;&lt;p style=&quot;margin:0px;margin-left:4px;&quot;&gt;+ Chuyenmonnghiepvu: varchar[50]&lt;/p&gt;&lt;p style=&quot;margin:0px;margin-left:4px;&quot;&gt;+ Tuoi: int[11]&lt;/p&gt;&lt;p style=&quot;margin:0px;margin-left:4px;&quot;&gt;+ Lyluanchinhtri: varchar[20]&lt;/p&gt;&lt;p style=&quot;margin:0px;margin-left:4px;&quot;&gt;+ Ngoaingu:&amp;nbsp;&lt;span style=&quot;background-color: initial;&quot;&gt;varchar[20]&lt;/span&gt;&lt;/p&gt;&lt;p style=&quot;margin:0px;margin-left:4px;&quot;&gt;+ Nghenghiepchucvu:&amp;nbsp;&lt;span style=&quot;background-color: initial;&quot;&gt;varchar[50]&lt;/span&gt;&lt;/p&gt;&lt;p style=&quot;margin:0px;margin-left:4px;&quot;&gt;+ Noicongtac:&amp;nbsp;&lt;span style=&quot;background-color: initial;&quot;&gt;varchar[50]&lt;/span&gt;&lt;/p&gt;&lt;p style=&quot;margin:0px;margin-left:4px;&quot;&gt;+ Ngayvaodang: date&lt;/p&gt;&lt;p style=&quot;margin:0px;margin-left:4px;&quot;&gt;+ Tinhtrang:&amp;nbsp;&lt;span style=&quot;background-color: initial;&quot;&gt;varchar[50]&lt;/span&gt;&lt;/p&gt;&lt;p style=&quot;margin:0px;margin-left:4px;&quot;&gt;+ Ghichu:&amp;nbsp;&lt;span style=&quot;background-color: initial;&quot;&gt;varchar[255]&lt;/span&gt;&lt;/p&gt;&lt;p style=&quot;margin:0px;margin-left:4px;&quot;&gt;&lt;br&gt;&lt;/p&gt;&lt;p style=&quot;margin:0px;margin-left:4px;&quot;&gt;&lt;br&gt;&lt;/p&gt;&lt;hr size=&quot;1&quot; style=&quot;border-style:solid;&quot;&gt;&lt;p style=&quot;margin:0px;margin-left:4px;&quot;&gt;+ void: ThemCB&lt;/p&gt;&lt;p style=&quot;margin:0px;margin-left:4px;&quot;&gt;+ void: CapNhatCB&lt;br&gt;+ void: XoaCB&lt;/p&gt;&lt;p style=&quot;margin: 0px 0px 0px 4px;&quot;&gt;+ void: setMaCB&lt;/p&gt;&lt;p style=&quot;margin: 0px 0px 0px 4px;&quot;&gt;+ varchar get&lt;span style=&quot;background-color: initial;&quot;&gt;MaCB&lt;/span&gt;&lt;/p&gt;&lt;p style=&quot;margin:0px;margin-left:4px;&quot;&gt;+ void: setHoten&lt;/p&gt;&lt;p style=&quot;margin:0px;margin-left:4px;&quot;&gt;+ varchar getHoten&lt;/p&gt;" style="verticalAlign=top;align=left;overflow=fill;html=1;whiteSpace=wrap;" parent="1" vertex="1">
          <mxGeometry x="900" y="70" width="230" height="460" as="geometry" />
        </mxCell>
        <mxCell id="YhyGyL0kjgwXe28GrFd7-1" value="&lt;p style=&quot;margin:0px;margin-top:4px;text-align:center;&quot;&gt;&lt;b&gt;xathitran&lt;/b&gt;&lt;/p&gt;&lt;hr size=&quot;1&quot; style=&quot;border-style:solid;&quot;&gt;&lt;p style=&quot;margin:0px;margin-left:4px;&quot;&gt;&lt;b&gt;&lt;u&gt;+ ID: int[11]&amp;nbsp;&lt;/u&gt;&lt;/b&gt;&lt;br&gt;+ Tendonvi: varchar[100]&lt;/p&gt;&lt;p style=&quot;margin:0px;margin-left:4px;&quot;&gt;+ Thaotac: varchar[20]&lt;/p&gt;&lt;p style=&quot;margin:0px;margin-left:4px;&quot;&gt;+ Ghichu: varchar[255]&lt;/p&gt;&lt;hr size=&quot;1&quot; style=&quot;border-style:solid;&quot;&gt;&lt;p style=&quot;margin:0px;margin-left:4px;&quot;&gt;+ void: ThemTendonvi&lt;br&gt;+ void: SuaTendonvi&lt;br&gt;&lt;/p&gt;&lt;p style=&quot;margin:0px;margin-left:4px;&quot;&gt;+ void: XoaTendonvi&lt;br&gt;&lt;/p&gt;&lt;p style=&quot;margin:0px;margin-left:4px;&quot;&gt;+ void: setTendonvi&lt;/p&gt;&lt;p style=&quot;margin:0px;margin-left:4px;&quot;&gt;+ varchar getTendonvi&lt;/p&gt;" style="verticalAlign=top;align=left;overflow=fill;html=1;whiteSpace=wrap;" parent="1" vertex="1">
          <mxGeometry x="140" y="720" width="190" height="180" as="geometry" />
        </mxCell>
        <mxCell id="YhyGyL0kjgwXe28GrFd7-3" value="&lt;p style=&quot;margin:0px;margin-top:4px;text-align:center;&quot;&gt;&lt;b&gt;huyen&lt;/b&gt;&lt;/p&gt;&lt;hr size=&quot;1&quot; style=&quot;border-style:solid;&quot;&gt;&lt;p style=&quot;margin:0px;margin-left:4px;&quot;&gt;&lt;b&gt;&lt;u&gt;+ ID: int[11]&lt;/u&gt;&lt;/b&gt;&lt;br&gt;+ Tendonvi: varchar[100]&lt;/p&gt;&lt;p style=&quot;margin:0px;margin-left:4px;&quot;&gt;+ Thaotac: varchar[20]&lt;/p&gt;&lt;p style=&quot;margin:0px;margin-left:4px;&quot;&gt;+ Ghichu: varchar[255]&lt;/p&gt;&lt;hr size=&quot;1&quot; style=&quot;border-style:solid;&quot;&gt;&lt;p style=&quot;margin:0px;margin-left:4px;&quot;&gt;+ void: ThemTendonvi&lt;br&gt;+ void: SuaTendonvi&lt;br&gt;&lt;/p&gt;&lt;p style=&quot;margin:0px;margin-left:4px;&quot;&gt;+ void: XoaTendonvi&lt;br&gt;&lt;/p&gt;&lt;p style=&quot;margin:0px;margin-left:4px;&quot;&gt;+ void: setTendonvi&lt;/p&gt;&lt;p style=&quot;margin:0px;margin-left:4px;&quot;&gt;+ varchar getTendonvi&lt;/p&gt;" style="verticalAlign=top;align=left;overflow=fill;html=1;whiteSpace=wrap;" parent="1" vertex="1">
          <mxGeometry x="560" y="70" width="190" height="180" as="geometry" />
        </mxCell>
        <mxCell id="YhyGyL0kjgwXe28GrFd7-4" value="&lt;p style=&quot;margin:0px;margin-top:4px;text-align:center;&quot;&gt;&lt;b&gt;user&lt;/b&gt;&lt;/p&gt;&lt;hr size=&quot;1&quot; style=&quot;border-style:solid;&quot;&gt;&lt;p style=&quot;margin:0px;margin-left:4px;&quot;&gt;&lt;b&gt;&lt;u&gt;+ ID: int[11]&lt;/u&gt;&lt;/b&gt;&lt;br&gt;+ username: varchar[100]&lt;/p&gt;&lt;p style=&quot;margin:0px;margin-left:4px;&quot;&gt;+ password: varchar[20]&lt;/p&gt;&lt;p style=&quot;margin:0px;margin-left:4px;&quot;&gt;+ quyen: int[11]&lt;/p&gt;&lt;p style=&quot;margin:0px;margin-left:4px;&quot;&gt;+ Ghichu: varchar[255]&lt;/p&gt;&lt;hr size=&quot;1&quot; style=&quot;border-style:solid;&quot;&gt;&lt;p style=&quot;margin:0px;margin-left:4px;&quot;&gt;+ void: Themusername&lt;br&gt;+ void: Sua&lt;span style=&quot;background-color: initial;&quot;&gt;username&lt;/span&gt;&lt;br&gt;&lt;/p&gt;&lt;p style=&quot;margin:0px;margin-left:4px;&quot;&gt;+ void: Xoa&lt;span style=&quot;background-color: initial;&quot;&gt;username&lt;/span&gt;&lt;br&gt;&lt;/p&gt;&lt;p style=&quot;margin:0px;margin-left:4px;&quot;&gt;+ void: set&lt;span style=&quot;background-color: initial;&quot;&gt;username&lt;/span&gt;&lt;/p&gt;&lt;p style=&quot;margin:0px;margin-left:4px;&quot;&gt;+ varchar get&lt;span style=&quot;background-color: initial;&quot;&gt;username&lt;/span&gt;&lt;/p&gt;" style="verticalAlign=top;align=left;overflow=fill;html=1;whiteSpace=wrap;" parent="1" vertex="1">
          <mxGeometry x="590" y="440" width="190" height="210" as="geometry" />
        </mxCell>
        <mxCell id="YhyGyL0kjgwXe28GrFd7-5" value="&lt;p style=&quot;margin:0px;margin-top:4px;text-align:center;&quot;&gt;&lt;b&gt;chucvu&lt;/b&gt;&lt;/p&gt;&lt;hr size=&quot;1&quot; style=&quot;border-style:solid;&quot;&gt;&lt;p style=&quot;margin:0px;margin-left:4px;&quot;&gt;&lt;b&gt;&lt;u&gt;+ ID: int[11]&lt;/u&gt;&lt;/b&gt;&lt;br&gt;+ TenPB: varchar[100]&lt;/p&gt;&lt;p style=&quot;margin:0px;margin-left:4px;&quot;&gt;+ TenCV: varchar[20]&lt;/p&gt;&lt;p style=&quot;margin:0px;margin-left:4px;&quot;&gt;+ Ghichu: varchar[255]&lt;/p&gt;&lt;hr size=&quot;1&quot; style=&quot;border-style:solid;&quot;&gt;&lt;p style=&quot;margin:0px;margin-left:4px;&quot;&gt;+ void: ThemTenPB&lt;br&gt;+ void: Sua&lt;span style=&quot;background-color: initial;&quot;&gt;TenPB&lt;/span&gt;&lt;br&gt;&lt;/p&gt;&lt;p style=&quot;margin:0px;margin-left:4px;&quot;&gt;+ void: Xoa&lt;span style=&quot;background-color: initial;&quot;&gt;TenPB&lt;/span&gt;&lt;br&gt;&lt;/p&gt;&lt;p style=&quot;margin: 0px 0px 0px 4px;&quot;&gt;+ void: ThemTenCV&lt;br&gt;+ void: Sua&lt;span style=&quot;background-color: initial;&quot;&gt;TenCV&lt;/span&gt;&lt;br&gt;&lt;/p&gt;&lt;p style=&quot;margin: 0px 0px 0px 4px;&quot;&gt;+ void: Xoa&lt;span style=&quot;background-color: initial;&quot;&gt;TenCV&lt;/span&gt;&lt;/p&gt;&lt;p style=&quot;margin:0px;margin-left:4px;&quot;&gt;+ void: set&lt;span style=&quot;background-color: initial;&quot;&gt;MaCB&lt;/span&gt;&lt;/p&gt;&lt;p style=&quot;margin:0px;margin-left:4px;&quot;&gt;+ varchar get&lt;span style=&quot;background-color: initial;&quot;&gt;MaCB&lt;/span&gt;&lt;/p&gt;&lt;p style=&quot;margin: 0px 0px 0px 4px;&quot;&gt;+ void: set&lt;span style=&quot;background-color: initial;&quot;&gt;MaPB&lt;/span&gt;&lt;/p&gt;&lt;p style=&quot;margin: 0px 0px 0px 4px;&quot;&gt;+ varchar get&lt;span style=&quot;background-color: initial;&quot;&gt;MaPB&lt;/span&gt;&lt;/p&gt;&lt;p style=&quot;margin: 0px 0px 0px 4px;&quot;&gt;+ void: set&lt;span style=&quot;background-color: initial;&quot;&gt;MaCV&lt;/span&gt;&lt;/p&gt;&lt;p style=&quot;margin: 0px 0px 0px 4px;&quot;&gt;+ varchar get&lt;span style=&quot;background-color: initial;&quot;&gt;MaCV&lt;/span&gt;&lt;/p&gt;" style="verticalAlign=top;align=left;overflow=fill;html=1;whiteSpace=wrap;" parent="1" vertex="1">
          <mxGeometry x="900" y="720" width="190" height="330" as="geometry" />
        </mxCell>
        <mxCell id="YhyGyL0kjgwXe28GrFd7-6" value="&lt;p style=&quot;margin:0px;margin-top:4px;text-align:center;&quot;&gt;&lt;b&gt;tintuc&lt;/b&gt;&lt;/p&gt;&lt;hr size=&quot;1&quot; style=&quot;border-style:solid;&quot;&gt;&lt;p style=&quot;margin:0px;margin-left:4px;&quot;&gt;&lt;b&gt;&lt;u&gt;+ ID: int[11]&lt;/u&gt;&lt;/b&gt;&lt;br&gt;+ TieuDe: varchar[100]&lt;/p&gt;&lt;p style=&quot;margin:0px;margin-left:4px;&quot;&gt;+ Noidung: varchar[255]&lt;/p&gt;&lt;p style=&quot;margin:0px;margin-left:4px;&quot;&gt;+ NgayDang: int[11]&lt;/p&gt;&lt;p style=&quot;margin:0px;margin-left:4px;&quot;&gt;+ Ghichu: varchar[255]&lt;/p&gt;&lt;hr size=&quot;1&quot; style=&quot;border-style:solid;&quot;&gt;&lt;p style=&quot;margin:0px;margin-left:4px;&quot;&gt;+ void: Them&lt;br&gt;+ void: Sua&lt;br&gt;&lt;/p&gt;&lt;p style=&quot;margin:0px;margin-left:4px;&quot;&gt;+ void: Xoa&lt;br&gt;&lt;/p&gt;&lt;p style=&quot;margin:0px;margin-left:4px;&quot;&gt;+ void: set&lt;span style=&quot;background-color: initial;&quot;&gt;TieuDe&lt;/span&gt;&lt;/p&gt;&lt;p style=&quot;margin:0px;margin-left:4px;&quot;&gt;+ varchar get&lt;span style=&quot;background-color: initial;&quot;&gt;TieuDe&lt;/span&gt;&lt;/p&gt;" style="verticalAlign=top;align=left;overflow=fill;html=1;whiteSpace=wrap;" parent="1" vertex="1">
          <mxGeometry x="560" y="800" width="190" height="210" as="geometry" />
        </mxCell>
        <mxCell id="hPfxJHP7Gy6B69mLIo96-1" value="" style="endArrow=classic;html=1;rounded=0;entryX=1.005;entryY=0.155;entryDx=0;entryDy=0;entryPerimeter=0;exitX=0;exitY=0.405;exitDx=0;exitDy=0;exitPerimeter=0;" parent="1" source="YhyGyL0kjgwXe28GrFd7-3" target="_Ik8u61hdlwId_52YE1R-29" edge="1">
          <mxGeometry width="50" height="50" relative="1" as="geometry">
            <mxPoint x="380" y="640" as="sourcePoint" />
            <mxPoint x="430" y="590" as="targetPoint" />
          </mxGeometry>
        </mxCell>
        <mxCell id="hPfxJHP7Gy6B69mLIo96-2" value="" style="endArrow=classic;html=1;rounded=0;exitX=1;exitY=0.25;exitDx=0;exitDy=0;entryX=0.25;entryY=1;entryDx=0;entryDy=0;edgeStyle=orthogonalEdgeStyle;" parent="1" source="YhyGyL0kjgwXe28GrFd7-1" target="YhyGyL0kjgwXe28GrFd7-4" edge="1">
          <mxGeometry width="50" height="50" relative="1" as="geometry">
            <mxPoint x="460" y="740" as="sourcePoint" />
            <mxPoint x="430" y="590" as="targetPoint" />
          </mxGeometry>
        </mxCell>
        <mxCell id="hPfxJHP7Gy6B69mLIo96-3" value="" style="endArrow=classic;html=1;rounded=0;exitX=1.002;exitY=0.872;exitDx=0;exitDy=0;exitPerimeter=0;entryX=0;entryY=0.143;entryDx=0;entryDy=0;entryPerimeter=0;" parent="1" source="_Ik8u61hdlwId_52YE1R-29" target="YhyGyL0kjgwXe28GrFd7-4" edge="1">
          <mxGeometry width="50" height="50" relative="1" as="geometry">
            <mxPoint x="380" y="600" as="sourcePoint" />
            <mxPoint x="510" y="470" as="targetPoint" />
          </mxGeometry>
        </mxCell>
        <mxCell id="hPfxJHP7Gy6B69mLIo96-4" value="" style="endArrow=classic;html=1;rounded=0;entryX=0.592;entryY=0.998;entryDx=0;entryDy=0;entryPerimeter=0;exitX=0.75;exitY=0;exitDx=0;exitDy=0;" parent="1" source="YhyGyL0kjgwXe28GrFd7-6" target="YhyGyL0kjgwXe28GrFd7-4" edge="1">
          <mxGeometry width="50" height="50" relative="1" as="geometry">
            <mxPoint x="450" y="640" as="sourcePoint" />
            <mxPoint x="580" y="710" as="targetPoint" />
          </mxGeometry>
        </mxCell>
        <mxCell id="hPfxJHP7Gy6B69mLIo96-5" value="" style="endArrow=classic;html=1;rounded=0;edgeStyle=orthogonalEdgeStyle;entryX=0.75;entryY=1;entryDx=0;entryDy=0;exitX=0.38;exitY=1.005;exitDx=0;exitDy=0;exitPerimeter=0;" parent="1" source="YhyGyL0kjgwXe28GrFd7-5" target="YhyGyL0kjgwXe28GrFd7-1" edge="1">
          <mxGeometry width="50" height="50" relative="1" as="geometry">
            <mxPoint x="970" y="1130" as="sourcePoint" />
            <mxPoint x="580" y="760" as="targetPoint" />
            <Array as="points">
              <mxPoint x="970" y="1052" />
              <mxPoint x="970" y="1080" />
              <mxPoint x="282" y="1080" />
            </Array>
          </mxGeometry>
        </mxCell>
        <mxCell id="hPfxJHP7Gy6B69mLIo96-8" value="" style="endArrow=classic;html=1;rounded=0;entryX=0.5;entryY=0;entryDx=0;entryDy=0;" parent="1" target="YhyGyL0kjgwXe28GrFd7-5" edge="1">
          <mxGeometry width="50" height="50" relative="1" as="geometry">
            <mxPoint x="1000" y="530" as="sourcePoint" />
            <mxPoint x="920" y="560" as="targetPoint" />
          </mxGeometry>
        </mxCell>
        <mxCell id="hPfxJHP7Gy6B69mLIo96-9" value="" style="endArrow=classic;html=1;rounded=0;edgeStyle=orthogonalEdgeStyle;exitX=1;exitY=0.5;exitDx=0;exitDy=0;" parent="1" source="YhyGyL0kjgwXe28GrFd7-3" edge="1">
          <mxGeometry width="50" height="50" relative="1" as="geometry">
            <mxPoint x="790" y="157" as="sourcePoint" />
            <mxPoint x="900" y="800" as="targetPoint" />
            <Array as="points">
              <mxPoint x="750" y="157" />
              <mxPoint x="837" y="157" />
              <mxPoint x="837" y="800" />
            </Array>
          </mxGeometry>
        </mxCell>
        <mxCell id="hPfxJHP7Gy6B69mLIo96-10" value="" style="endArrow=classic;html=1;rounded=0;exitX=0.002;exitY=0.196;exitDx=0;exitDy=0;exitPerimeter=0;entryX=0.75;entryY=1;entryDx=0;entryDy=0;edgeStyle=orthogonalEdgeStyle;" parent="1" source="YhyGyL0kjgwXe28GrFd7-5" target="YhyGyL0kjgwXe28GrFd7-4" edge="1">
          <mxGeometry width="50" height="50" relative="1" as="geometry">
            <mxPoint x="780" y="610" as="sourcePoint" />
            <mxPoint x="830" y="560" as="targetPoint" />
          </mxGeometry>
        </mxCell>
        <mxCell id="hPfxJHP7Gy6B69mLIo96-11" value="" style="endArrow=classic;html=1;rounded=0;exitX=0.5;exitY=0;exitDx=0;exitDy=0;entryX=0.32;entryY=1.001;entryDx=0;entryDy=0;entryPerimeter=0;" parent="1" source="YhyGyL0kjgwXe28GrFd7-1" target="_Ik8u61hdlwId_52YE1R-29" edge="1">
          <mxGeometry width="50" height="50" relative="1" as="geometry">
            <mxPoint x="350" y="610" as="sourcePoint" />
            <mxPoint x="400" y="560" as="targetPoint" />
          </mxGeometry>
        </mxCell>
        <mxCell id="hPfxJHP7Gy6B69mLIo96-12" value="" style="endArrow=classic;html=1;rounded=0;exitX=0.596;exitY=1.011;exitDx=0;exitDy=0;exitPerimeter=0;entryX=0.438;entryY=-0.004;entryDx=0;entryDy=0;entryPerimeter=0;" parent="1" source="YhyGyL0kjgwXe28GrFd7-3" target="YhyGyL0kjgwXe28GrFd7-4" edge="1">
          <mxGeometry width="50" height="50" relative="1" as="geometry">
            <mxPoint x="420" y="410" as="sourcePoint" />
            <mxPoint x="680" y="410" as="targetPoint" />
          </mxGeometry>
        </mxCell>
        <mxCell id="hPfxJHP7Gy6B69mLIo96-14" value="" style="endArrow=classic;html=1;rounded=0;exitX=1.002;exitY=0.406;exitDx=0;exitDy=0;exitPerimeter=0;edgeStyle=orthogonalEdgeStyle;" parent="1" target="YhyGyL0kjgwXe28GrFd7-5" edge="1">
          <mxGeometry width="50" height="50" relative="1" as="geometry">
            <mxPoint x="390.00000000000006" y="320" as="sourcePoint" />
            <mxPoint x="900" y="975" as="targetPoint" />
            <Array as="points">
              <mxPoint x="800" y="320" />
              <mxPoint x="800" y="973" />
            </Array>
          </mxGeometry>
        </mxCell>
        <mxCell id="hPfxJHP7Gy6B69mLIo96-15" value="1..*" style="text;strokeColor=none;fillColor=none;align=left;verticalAlign=middle;spacingLeft=4;spacingRight=4;overflow=hidden;points=[[0,0.5],[1,0.5]];portConstraint=eastwest;rotatable=0;whiteSpace=wrap;html=1;" parent="1" vertex="1">
          <mxGeometry x="390" y="110" width="80" height="30" as="geometry" />
        </mxCell>
        <mxCell id="hPfxJHP7Gy6B69mLIo96-16" value="1..1" style="text;strokeColor=none;fillColor=none;align=left;verticalAlign=middle;spacingLeft=4;spacingRight=4;overflow=hidden;points=[[0,0.5],[1,0.5]];portConstraint=eastwest;rotatable=0;whiteSpace=wrap;html=1;" parent="1" vertex="1">
          <mxGeometry x="510" y="145" width="40" height="30" as="geometry" />
        </mxCell>
        <mxCell id="hPfxJHP7Gy6B69mLIo96-17" value="0..1" style="text;strokeColor=none;fillColor=none;align=left;verticalAlign=middle;spacingLeft=4;spacingRight=4;overflow=hidden;points=[[0,0.5],[1,0.5]];portConstraint=eastwest;rotatable=0;whiteSpace=wrap;html=1;" parent="1" vertex="1">
          <mxGeometry x="393" y="280" width="40" height="30" as="geometry" />
        </mxCell>
        <mxCell id="hPfxJHP7Gy6B69mLIo96-18" value="1..1" style="text;strokeColor=none;fillColor=none;align=left;verticalAlign=middle;spacingLeft=4;spacingRight=4;overflow=hidden;points=[[0,0.5],[1,0.5]];portConstraint=eastwest;rotatable=0;whiteSpace=wrap;html=1;" parent="1" vertex="1">
          <mxGeometry x="680" y="270" width="40" height="30" as="geometry" />
        </mxCell>
        <mxCell id="hPfxJHP7Gy6B69mLIo96-19" value="0..*" style="text;strokeColor=none;fillColor=none;align=left;verticalAlign=middle;spacingLeft=4;spacingRight=4;overflow=hidden;points=[[0,0.5],[1,0.5]];portConstraint=eastwest;rotatable=0;whiteSpace=wrap;html=1;" parent="1" vertex="1">
          <mxGeometry x="760" y="120" width="40" height="30" as="geometry" />
        </mxCell>
        <mxCell id="hPfxJHP7Gy6B69mLIo96-20" value="1..1" style="text;strokeColor=none;fillColor=none;align=left;verticalAlign=middle;spacingLeft=4;spacingRight=4;overflow=hidden;points=[[0,0.5],[1,0.5]];portConstraint=eastwest;rotatable=0;whiteSpace=wrap;html=1;" parent="1" vertex="1">
          <mxGeometry x="1010" y="555" width="40" height="30" as="geometry" />
        </mxCell>
        <mxCell id="hPfxJHP7Gy6B69mLIo96-21" value="1..*" style="text;strokeColor=none;fillColor=none;align=left;verticalAlign=middle;spacingLeft=4;spacingRight=4;overflow=hidden;points=[[0,0.5],[1,0.5]];portConstraint=eastwest;rotatable=0;whiteSpace=wrap;html=1;" parent="1" vertex="1">
          <mxGeometry x="950" y="680" width="40" height="30" as="geometry" />
        </mxCell>
        <mxCell id="hPfxJHP7Gy6B69mLIo96-22" value="1..1" style="text;strokeColor=none;fillColor=none;align=left;verticalAlign=middle;spacingLeft=4;spacingRight=4;overflow=hidden;points=[[0,0.5],[1,0.5]];portConstraint=eastwest;rotatable=0;whiteSpace=wrap;html=1;" parent="1" vertex="1">
          <mxGeometry x="920" y="1090" width="40" height="30" as="geometry" />
        </mxCell>
        <mxCell id="hPfxJHP7Gy6B69mLIo96-23" value="1..*" style="text;strokeColor=none;fillColor=none;align=left;verticalAlign=middle;spacingLeft=4;spacingRight=4;overflow=hidden;points=[[0,0.5],[1,0.5]];portConstraint=eastwest;rotatable=0;whiteSpace=wrap;html=1;" parent="1" vertex="1">
          <mxGeometry x="290" y="1000" width="60" height="30" as="geometry" />
        </mxCell>
        <mxCell id="hPfxJHP7Gy6B69mLIo96-24" value="1..1" style="text;strokeColor=none;fillColor=none;align=left;verticalAlign=middle;spacingLeft=4;spacingRight=4;overflow=hidden;points=[[0,0.5],[1,0.5]];portConstraint=eastwest;rotatable=0;whiteSpace=wrap;html=1;" parent="1" vertex="1">
          <mxGeometry x="340" y="730" width="60" height="30" as="geometry" />
        </mxCell>
        <mxCell id="hPfxJHP7Gy6B69mLIo96-25" value="1..*" style="text;strokeColor=none;fillColor=none;align=left;verticalAlign=middle;spacingLeft=4;spacingRight=4;overflow=hidden;points=[[0,0.5],[1,0.5]];portConstraint=eastwest;rotatable=0;whiteSpace=wrap;html=1;" parent="1" vertex="1">
          <mxGeometry x="640" y="680" width="40" height="30" as="geometry" />
        </mxCell>
        <mxCell id="hPfxJHP7Gy6B69mLIo96-26" value="1..*" style="text;strokeColor=none;fillColor=none;align=left;verticalAlign=middle;spacingLeft=4;spacingRight=4;overflow=hidden;points=[[0,0.5],[1,0.5]];portConstraint=eastwest;rotatable=0;whiteSpace=wrap;html=1;" parent="1" vertex="1">
          <mxGeometry x="700" y="680" width="40" height="30" as="geometry" />
        </mxCell>
        <mxCell id="hPfxJHP7Gy6B69mLIo96-27" value="1..1" style="text;strokeColor=none;fillColor=none;align=left;verticalAlign=middle;spacingLeft=4;spacingRight=4;overflow=hidden;points=[[0,0.5],[1,0.5]];portConstraint=eastwest;rotatable=0;whiteSpace=wrap;html=1;" parent="1" vertex="1">
          <mxGeometry x="800" y="780" width="40" height="30" as="geometry" />
        </mxCell>
        <mxCell id="hPfxJHP7Gy6B69mLIo96-28" value="1..1" style="text;strokeColor=none;fillColor=none;align=left;verticalAlign=middle;spacingLeft=4;spacingRight=4;overflow=hidden;points=[[0,0.5],[1,0.5]];portConstraint=eastwest;rotatable=0;whiteSpace=wrap;html=1;" parent="1" vertex="1">
          <mxGeometry x="840" y="980" width="40" height="30" as="geometry" />
        </mxCell>
        <mxCell id="hPfxJHP7Gy6B69mLIo96-29" value="1..1" style="text;strokeColor=none;fillColor=none;align=left;verticalAlign=middle;spacingLeft=4;spacingRight=4;overflow=hidden;points=[[0,0.5],[1,0.5]];portConstraint=eastwest;rotatable=0;whiteSpace=wrap;html=1;" parent="1" vertex="1">
          <mxGeometry x="190" y="680" width="30" height="30" as="geometry" />
        </mxCell>
        <mxCell id="hPfxJHP7Gy6B69mLIo96-30" value="1..*" style="text;strokeColor=none;fillColor=none;align=left;verticalAlign=middle;spacingLeft=4;spacingRight=4;overflow=hidden;points=[[0,0.5],[1,0.5]];portConstraint=eastwest;rotatable=0;whiteSpace=wrap;html=1;" parent="1" vertex="1">
          <mxGeometry x="240" y="540" width="60" height="30" as="geometry" />
        </mxCell>
        <mxCell id="hPfxJHP7Gy6B69mLIo96-32" value="" style="endArrow=classic;html=1;rounded=0;entryX=1.01;entryY=0.441;entryDx=0;entryDy=0;entryPerimeter=0;exitX=0.25;exitY=1;exitDx=0;exitDy=0;edgeStyle=orthogonalEdgeStyle;" parent="1" source="YhyGyL0kjgwXe28GrFd7-1" target="_Ik8u61hdlwId_52YE1R-30" edge="1">
          <mxGeometry width="50" height="50" relative="1" as="geometry">
            <mxPoint x="760" y="610" as="sourcePoint" />
            <mxPoint x="1160" y="290" as="targetPoint" />
            <Array as="points">
              <mxPoint x="187" y="1120" />
              <mxPoint x="1220" y="1120" />
              <mxPoint x="1220" y="273" />
            </Array>
          </mxGeometry>
        </mxCell>
        <mxCell id="hPfxJHP7Gy6B69mLIo96-33" value="1..*" style="text;strokeColor=none;fillColor=none;align=left;verticalAlign=middle;spacingLeft=4;spacingRight=4;overflow=hidden;points=[[0,0.5],[1,0.5]];portConstraint=eastwest;rotatable=0;whiteSpace=wrap;html=1;" parent="1" vertex="1">
          <mxGeometry x="1140" y="240" width="80" height="30" as="geometry" />
        </mxCell>
        <mxCell id="hPfxJHP7Gy6B69mLIo96-34" value="1..1" style="text;strokeColor=none;fillColor=none;align=left;verticalAlign=middle;spacingLeft=4;spacingRight=4;overflow=hidden;points=[[0,0.5],[1,0.5]];portConstraint=eastwest;rotatable=0;whiteSpace=wrap;html=1;" parent="1" vertex="1">
          <mxGeometry x="190" y="1030" width="80" height="30" as="geometry" />
        </mxCell>
      </root>
    </mxGraphModel>
  </diagram>
</mxfile>
